<svg width="500" height="500" viewBox="0 0 500 500" fill="none" xmlns="http://www.w3.org/2000/svg">
    <path d="M500 382.399H0V382.649H500V382.399Z" fill="#EBEBEB" />
    <path d="M111.66 390.79H78.54V391.04H111.66V390.79Z" fill="#EBEBEB" />
    <path d="M163.5 398H133.33V398.25H163.5V398Z" fill="#EBEBEB" />
    <path d="M95.1001 400.069H56.8501V400.319H95.1001V400.069Z" fill="#EBEBEB" />
    <path d="M449.9 399.529H434V399.779H449.9V399.529Z" fill="#EBEBEB" />
    <path d="M430.79 399.529H391.47V399.779H430.79V399.529Z" fill="#EBEBEB" />
    <path d="M280.33 390.659H250V390.909H280.33V390.659Z" fill="#EBEBEB" />
    <path d="M356.77 390.659H284.67V390.909H356.77V390.659Z" fill="#EBEBEB" />
    <path
        d="M237 337.8H43.91C42.3973 337.797 40.9475 337.195 39.8788 336.124C38.8102 335.054 38.21 333.603 38.21 332.09V60.66C38.2231 59.156 38.8292 57.718 39.8964 56.6582C40.9637 55.5985 42.4059 55.0026 43.91 55H237C238.514 55 239.967 55.6016 241.038 56.6724C242.108 57.7433 242.71 59.1956 242.71 60.71V332.09C242.71 333.604 242.108 335.057 241.038 336.128C239.967 337.198 238.514 337.8 237 337.8ZM43.91 55.2C42.4636 55.2026 41.0774 55.7791 40.0556 56.8027C39.0338 57.8264 38.46 59.2136 38.46 60.66V332.09C38.46 333.536 39.0338 334.924 40.0556 335.947C41.0774 336.971 42.4636 337.547 43.91 337.55H237C238.447 337.547 239.834 336.971 240.858 335.948C241.881 334.924 242.457 333.537 242.46 332.09V60.66C242.457 59.2127 241.881 57.8255 240.858 56.8021C239.834 55.7787 238.447 55.2026 237 55.2H43.91Z"
        fill="#EBEBEB" />
    <path
        d="M453.31 337.8H260.21C258.696 337.797 257.246 337.195 256.175 336.125C255.105 335.054 254.503 333.604 254.5 332.09V60.66C254.516 59.1551 255.124 57.7171 256.193 56.6576C257.262 55.5981 258.705 55.0025 260.21 55H453.31C454.812 55.0052 456.252 55.6022 457.317 56.6617C458.382 57.7212 458.987 59.1578 459 60.66V332.09C459 333.601 458.401 335.05 457.335 336.121C456.268 337.191 454.821 337.795 453.31 337.8ZM260.21 55.2C258.763 55.2026 257.375 55.7787 256.352 56.8021C255.329 57.8255 254.753 59.2127 254.75 60.66V332.09C254.753 333.537 255.329 334.924 256.352 335.948C257.375 336.971 258.763 337.547 260.21 337.55H453.31C454.757 337.547 456.145 336.971 457.168 335.948C458.191 334.924 458.767 333.537 458.77 332.09V60.66C458.767 59.2127 458.191 57.8255 457.168 56.8021C456.145 55.7787 454.757 55.2026 453.31 55.2H260.21Z"
        fill="#EBEBEB" />
    <path d="M429.278 236.109L413.955 220.786L272.767 361.974L288.09 377.297L429.278 236.109Z"
        fill="#EBEBEB" />
    <path d="M361.93 303.449L346.61 288.119L325.72 309.009L339.77 331.419L361.93 303.449Z"
        fill="#E0E0E0" />
    <path d="M288.087 377.296L293.192 382.401L434.38 241.213L429.275 236.108L288.087 377.296Z"
        fill="#E0E0E0" />
    <path d="M288.093 225.885L272.77 241.208L413.958 382.396L429.281 367.073L288.093 225.885Z"
        fill="#EBEBEB" />
    <path d="M429.28 367.075L434.385 361.97L293.197 220.782L288.092 225.887L429.28 367.075Z"
        fill="#E0E0E0" />
    <path d="M176.202 268.548L164.273 256.619L54.3886 366.504L66.3175 378.432L176.202 268.548Z"
        fill="#EBEBEB" />
    <path d="M123.78 320.949L111.85 309.029L95.6001 325.289L106.53 342.719L123.78 320.949Z"
        fill="#E0E0E0" />
    <path d="M66.3093 378.429L70.2832 382.403L180.168 272.519L176.194 268.545L66.3093 378.429Z"
        fill="#E0E0E0" />
    <path d="M66.3229 260.592L54.394 272.521L164.278 382.405L176.207 370.476L66.3229 260.592Z"
        fill="#EBEBEB" />
    <path d="M176.188 370.469L180.162 366.495L70.2777 256.611L66.3038 260.585L176.188 370.469Z"
        fill="#E0E0E0" />
    <path d="M318.87 275.109H301.26V382.389H318.87V275.109Z" fill="#F5F5F5" />
    <path d="M318.87 319.689H301.26V332.559L318.87 328.759V319.689Z" fill="#EBEBEB" />
    <path d="M318.86 382.399H324.73V275.119H318.86V382.399Z" fill="#EBEBEB" />
    <path d="M134.4 275.109H116.79V382.389H134.4V275.109Z" fill="#F5F5F5" />
    <path d="M134.39 319.689H116.79V332.559L134.39 328.759V319.689Z" fill="#EBEBEB" />
    <path d="M134.39 382.399H140.26V275.119H134.39V382.399Z" fill="#EBEBEB" />
    <path d="M328.11 290.84H103.36V323.86H328.11V290.84Z" fill="#F5F5F5" />
    <path d="M328.11 323.85H331.41V290.83H328.11V323.85Z" fill="#EBEBEB" />
    <path
        d="M242.73 257.17H198.79L167.72 288.24V332.18L198.79 363.25H242.73L273.8 332.18V288.24L242.73 257.17Z"
        fill="#FAFAFA" />
    <path
        d="M240.72 262.02H200.8L172.57 290.25V330.17L200.8 358.4H240.72L268.95 330.17V290.25L240.72 262.02Z"
        fill="#FF7B7B" />
    <path
        d="M182.19 314.82L187.81 314.32C187.856 315.359 188.108 316.379 188.55 317.32C188.781 317.816 189.15 318.235 189.613 318.528C190.076 318.82 190.613 318.974 191.16 318.97C191.536 319 191.914 318.94 192.262 318.793C192.61 318.647 192.918 318.42 193.16 318.13C193.625 317.569 193.87 316.858 193.85 316.13C193.855 315.44 193.622 314.769 193.19 314.23C192.347 313.447 191.312 312.902 190.19 312.65C188.062 312.111 186.137 310.964 184.65 309.35C183.487 307.85 182.895 305.986 182.98 304.09C182.966 302.71 183.257 301.345 183.83 300.09C184.375 298.879 185.27 297.858 186.4 297.16C187.836 296.371 189.464 296.001 191.1 296.09C192.114 296.02 193.132 296.156 194.093 296.49C195.053 296.823 195.937 297.347 196.69 298.03C197.97 299.32 198.69 301.38 198.98 304.2L193.41 304.67C193.357 303.707 193.035 302.778 192.48 301.99C192.231 301.709 191.922 301.488 191.576 301.344C191.229 301.2 190.854 301.137 190.48 301.16C190.192 301.141 189.903 301.186 189.634 301.294C189.366 301.401 189.125 301.567 188.93 301.78C188.579 302.204 188.395 302.74 188.41 303.29C188.405 303.72 188.558 304.136 188.84 304.46C189.401 304.972 190.093 305.318 190.84 305.46C192.803 305.969 194.675 306.779 196.39 307.86C197.464 308.616 198.309 309.654 198.83 310.86C199.35 312.129 199.608 313.489 199.59 314.86C199.614 316.521 199.272 318.166 198.59 319.68C197.994 321.058 197.002 322.227 195.74 323.04C194.345 323.847 192.75 324.243 191.14 324.18C187.893 324.18 185.643 323.287 184.39 321.5C183.047 319.522 182.285 317.208 182.19 314.82Z"
        fill="white" />
    <path d="M201.17 296.6H219.17V303.33H213.17V323.82H207.26V303.33H201.26L201.17 296.6Z"
        fill="white" />
    <path
        d="M220.14 310.23C220.14 305.79 221.01 302.33 222.75 299.85C223.592 298.705 224.69 297.773 225.957 297.128C227.224 296.484 228.624 296.146 230.045 296.14C231.466 296.134 232.869 296.461 234.141 297.095C235.413 297.729 236.519 298.652 237.37 299.79C239.123 302.223 240 305.627 240 310C240.083 312.656 239.701 315.306 238.87 317.83C238.247 319.686 237.118 321.331 235.61 322.58C234.091 323.745 232.214 324.346 230.3 324.28C228.408 324.356 226.538 323.842 224.95 322.81C223.378 321.629 222.183 320.017 221.51 318.17C220.541 315.638 220.076 312.941 220.14 310.23ZM226.05 310.23C226.05 312.983 226.41 314.957 227.13 316.15C227.41 316.687 227.831 317.136 228.349 317.45C228.866 317.764 229.46 317.93 230.065 317.93C230.67 317.93 231.264 317.764 231.781 317.45C232.299 317.136 232.72 316.687 233 316.15C233.7 314.97 234 312.86 234 309.82C234.133 307.885 233.761 305.948 232.92 304.2C232.63 303.658 232.197 303.207 231.668 302.894C231.139 302.582 230.534 302.422 229.92 302.43C229.323 302.437 228.738 302.609 228.232 302.926C227.726 303.244 227.317 303.695 227.05 304.23C226.383 305.483 226.05 307.497 226.05 310.27V310.23Z"
        fill="white" />
    <path
        d="M243.11 296.599H252.93C253.849 296.538 254.769 296.705 255.608 297.085C256.448 297.466 257.18 298.048 257.74 298.779C258.911 300.619 259.467 302.783 259.33 304.959C259.465 307.238 258.854 309.498 257.59 311.399C256.961 312.189 256.148 312.813 255.223 313.218C254.297 313.622 253.287 313.794 252.28 313.719H249V323.819H243.07L243.11 296.599ZM249 308.209H250.45C250.888 308.257 251.331 308.206 251.747 308.059C252.163 307.911 252.539 307.672 252.85 307.359C253.329 306.744 253.573 305.978 253.54 305.199C253.588 304.428 253.4 303.66 253 302.999C252.73 302.673 252.382 302.421 251.989 302.265C251.596 302.11 251.169 302.056 250.75 302.109H249V308.209Z"
        fill="white" />
    <path
        d="M411.35 102.75C410.306 102.754 409.266 102.879 408.25 103.12C406.93 100.12 404 98.2498 400.05 98.2498C397.026 98.3239 394.089 99.2797 391.6 101C389.92 95.3598 384.89 91.5898 377.87 91.5898C367.87 91.5898 357.42 99.2298 353.64 108.99C352.716 108.773 351.769 108.666 350.82 108.67H349.88C341.27 109.25 341.88 122.25 350.55 122.25H412C413.064 122.253 414.113 122.006 415.064 121.529C416.014 121.051 416.838 120.356 417.47 119.5C418.531 118.06 419.339 116.45 419.86 114.74C421.76 108.12 418 102.75 411.35 102.75Z"
        fill="#F0F0F0" />
    <path
        d="M171.36 45.1296C170.02 36.2496 162.94 30.0596 152.59 30.0596C144.11 30.0596 135.37 34.2096 128.86 40.5996C126.961 38.9531 124.512 38.082 122 38.1596C114.82 38.1596 107.29 43.9796 105.17 51.1596C104.855 52.2193 104.677 53.3148 104.64 54.4196L104.49 54.5196C98.5499 58.5196 101.49 67.9096 108.73 67.9096H172C173.207 67.9193 174.397 67.6271 175.463 67.0595C176.528 66.4919 177.435 65.6669 178.1 64.6596C179.088 63.1512 179.853 61.5074 180.37 59.7796C182.58 52.1396 178.61 45.8496 171.36 45.1296Z"
        fill="#F0F0F0" />
    <path
        d="M246.88 144.299C245.04 132.089 235.31 123.579 221.08 123.579C209.41 123.579 197.4 129.289 188.46 138.069C185.857 135.799 182.492 134.599 179.04 134.709C169.18 134.709 158.81 142.709 155.9 152.579C155.467 154.035 155.222 155.541 155.17 157.059L154.97 157.189C146.78 162.759 150.84 175.599 160.74 175.599H244C247.376 175.623 250.67 174.561 253.396 172.569C256.123 170.578 258.136 167.763 259.14 164.539V164.419C262.32 153.929 256.85 145.279 246.88 144.299Z"
        fill="#F5F5F5" />
    <path
        d="M250 427.56C357.082 427.56 443.89 422.492 443.89 416.24C443.89 409.988 357.082 404.92 250 404.92C142.917 404.92 56.1099 409.988 56.1099 416.24C56.1099 422.492 142.917 427.56 250 427.56Z"
        fill="#F5F5F5" />
    <path
        d="M128.74 128.92H78.54V106.26L128.74 46.5898H152.74V107.59H165.19V128.97H152.76V147.51H128.76L128.74 128.92ZM128.74 107.54V76.3298L102.22 107.54H128.74Z"
        fill="#E6E6E6" />
    <path
        d="M364.91 46.5898V147.46H337V81.3598C332.928 84.5222 328.577 87.3071 324 89.6798C318.888 92.1459 313.579 94.1829 308.13 95.7698V73.1798C317.51 70.1465 324.793 66.5132 329.98 62.2798C335.172 58.0365 339.337 52.6723 342.16 46.5898H364.91Z"
        fill="#E6E6E6" />
    <path
        d="M311.82 173.19C311.38 173.98 311.04 174.55 310.65 175.19C310.26 175.83 309.87 176.43 309.48 177.05C308.69 178.27 307.85 179.45 307 180.63C305.286 182.996 303.446 185.27 301.49 187.44C299.499 189.668 297.357 191.756 295.08 193.69C292.714 195.741 290.144 197.544 287.41 199.07C286.55 199.572 285.65 200.004 284.72 200.36C283.748 200.731 282.744 201.012 281.72 201.2C279.895 201.516 278.037 201.603 276.19 201.46C272.994 201.181 269.854 200.454 266.86 199.3C264.097 198.247 261.422 196.976 258.86 195.5C256.342 194.063 253.935 192.438 251.66 190.64C251.016 190.118 250.579 189.383 250.426 188.568C250.273 187.753 250.415 186.91 250.825 186.19C251.236 185.469 251.889 184.918 252.669 184.634C253.448 184.351 254.302 184.353 255.08 184.64L255.26 184.71C259.969 186.593 264.83 188.068 269.79 189.12C271.976 189.576 274.209 189.761 276.44 189.67C277.311 189.633 278.173 189.475 279 189.2C279.309 189.1 279.607 188.969 279.89 188.81C280.17 188.65 280.22 188.6 280.79 188.21C284.618 185.397 288.051 182.084 291 178.36C292.57 176.44 294.1 174.45 295.55 172.36C296.29 171.36 296.99 170.29 297.7 169.25L298.7 167.69L299.64 166.22L299.8 165.97C300.79 164.457 302.328 163.385 304.091 162.98C305.854 162.574 307.705 162.867 309.256 163.797C310.808 164.727 311.939 166.221 312.414 167.966C312.888 169.712 312.668 171.573 311.8 173.16L311.82 173.19Z"
        fill="#FF8B7B" />
    <path
        d="M256.74 185.46L249.07 180.38L245.82 190.58C247.357 191.39 249.084 191.771 250.819 191.683C252.554 191.595 254.233 191.041 255.68 190.08L256.74 185.46Z"
        fill="#FF8B7B" />
    <path
        d="M242 181.911L241.4 185.161C241.291 185.737 241.348 186.332 241.564 186.877C241.78 187.422 242.146 187.895 242.62 188.241L245.79 190.581L249.04 180.381L245.96 179.481C245.54 179.357 245.099 179.323 244.664 179.381C244.23 179.439 243.813 179.587 243.44 179.816C243.067 180.045 242.746 180.35 242.498 180.71C242.25 181.071 242.08 181.48 242 181.911Z"
        fill="#FF8B7B" />
    <path
        d="M312.06 156.94C304.25 158.17 296.35 167.34 291.6 175.89C294.719 181.328 299.446 185.667 305.13 188.31C305.13 188.31 314.39 179.55 318.13 173.07C321.87 166.59 319.41 155.77 312.06 156.94Z"
        fill="#006FEE" />
    <path opacity="0.2"
        d="M312.06 156.94C304.25 158.17 296.35 167.34 291.6 175.89C294.719 181.328 299.446 185.667 305.13 188.31C305.13 188.31 314.39 179.55 318.13 173.07C321.87 166.59 319.41 155.77 312.06 156.94Z"
        fill="black" />
    <path
        d="M291.9 173.93C291.177 174.749 290.61 175.695 290.23 176.72C292.18 179.72 296.81 187.72 305.45 189.42C306.29 188.95 306.932 188.194 307.26 187.29C307.26 187.29 297.32 182.39 291.9 173.93Z"
        fill="#263238" />
    <path
        d="M343.53 156.671C334.09 155.09 324.476 154.814 314.96 155.851C307.86 156.761 302.56 163.291 302.61 170.441C302.646 177.9 303.315 185.344 304.61 192.691C302 206.441 301.06 225.131 303.81 229.251L353 229.941C355.11 224.061 352.46 198.611 355.27 172.041C355.652 168.463 354.647 164.875 352.463 162.016C350.279 159.157 347.082 157.244 343.53 156.671Z"
        fill="#006FEE" />
    <path opacity="0.2"
        d="M325 229.31C322.19 207.18 325 170.17 325 169.79L326 169.87C326 170.24 323.21 207.15 326 229.18L325 229.31Z"
        fill="black" />
    <path
        d="M319.65 156.54C321.34 155.91 320.71 154.97 320.71 154.97C320.71 154.97 313.03 154.97 307.71 156.4C306.9 157.26 307.77 158.4 307.77 158.4C307.77 158.4 314.62 158.42 319.65 156.54Z"
        fill="#263238" />
    <path opacity="0.2"
        d="M322.79 155C322.79 155 319.62 160.86 323.86 166.19C320.5 166.19 318.33 171.92 318.33 171.92C318.33 171.92 311.77 162.8 320.16 155.51C320.63 154.78 322.79 155 322.79 155Z"
        fill="black" />
    <path
        d="M319.4 157.84C318.58 161.42 325.79 168.17 325.79 168.17C325.79 168.17 338.54 162.01 339.35 158.48L319.4 157.84Z"
        fill="white" />
    <path opacity="0.2"
        d="M348.18 178.79C346.82 181.41 348.63 192.79 353.88 197.6C353.94 192.9 354.08 187.91 354.38 182.78L348.18 178.79Z"
        fill="black" />
    <path
        d="M336.69 137.25L323.53 145.89C325.09 149.71 325.82 153.69 321.32 155.53C320.742 155.762 320.247 156.162 319.898 156.678C319.55 157.194 319.363 157.802 319.363 158.425C319.363 159.048 319.55 159.656 319.898 160.172C320.247 160.688 320.742 161.088 321.32 161.32C322.646 161.802 324.033 162.095 325.44 162.19C329.67 162.6 333.934 161.911 337.82 160.19C338.229 159.986 338.589 159.694 338.874 159.337C339.16 158.979 339.364 158.564 339.472 158.119C339.581 157.675 339.591 157.212 339.503 156.763C339.414 156.314 339.229 155.89 338.96 155.52C335.51 150.64 335.93 142.16 336.69 137.25Z"
        fill="#FF8B7B" />
    <path opacity="0.2"
        d="M331.33 140.771L323.54 145.881C323.978 146.926 324.313 148.011 324.54 149.12C327.65 148.94 331.71 146.481 331.79 143.911C331.867 142.843 331.71 141.771 331.33 140.771Z"
        fill="black" />
    <path
        d="M322.08 120.77C325.43 120.7 326.34 125.51 325.08 127.14C327.62 127.69 328.85 130.66 328.08 132.14C327.31 133.62 324.37 135.29 321.75 134.63C317.26 133.51 316.49 129.78 317.75 128.08C315.35 126.1 316.57 120 322.08 120.77Z"
        fill="#263238" />
    <path opacity="0.2"
        d="M322.08 120.77C325.43 120.7 326.34 125.51 325.08 127.14C327.62 127.69 328.85 130.66 328.08 132.14C327.31 133.62 324.37 135.29 321.75 134.63C317.26 133.51 316.49 129.78 317.75 128.08C315.35 126.1 316.57 120 322.08 120.77Z"
        fill="white" />
    <path
        d="M341 128.7C340 136.59 339.81 141.26 335.54 145.04C329.11 150.71 319.54 146.35 318.18 138.29C316.94 131.04 318.79 119.35 326.76 116.77C328.526 116.208 330.405 116.101 332.223 116.46C334.041 116.818 335.739 117.63 337.16 118.82C338.58 120.01 339.677 121.54 340.348 123.267C341.02 124.994 341.244 126.863 341 128.7Z"
        fill="#FF8B7B" />
    <path
        d="M340.05 134.73C336.7 134.73 335.96 129.85 337.24 128.27C334.72 127.62 333.6 124.61 334.38 123.13C335.16 121.65 338.19 120.13 340.79 120.86C345.24 122.14 345.89 125.86 344.6 127.55C347 129.65 345.53 135.67 340.05 134.73Z"
        fill="#263238" />
    <path opacity="0.2"
        d="M340.05 134.73C336.7 134.73 335.96 129.85 337.24 128.27C334.72 127.62 333.6 124.61 334.38 123.13C335.16 121.65 338.19 120.13 340.79 120.86C345.24 122.14 345.89 125.86 344.6 127.55C347 129.65 345.53 135.67 340.05 134.73Z"
        fill="white" />
    <path opacity="0.2"
        d="M332 130C332.402 129.89 332.822 129.861 333.236 129.915C333.649 129.968 334.048 130.102 334.41 130.31C333.594 130.362 332.776 130.256 332 130Z"
        fill="black" />
    <path opacity="0.2"
        d="M332 130.54C332.381 130.519 332.762 130.581 333.116 130.723C333.47 130.864 333.789 131.082 334.05 131.36C333.317 131.234 332.618 130.954 332 130.54Z"
        fill="black" />
    <path opacity="0.2"
        d="M319.47 129.39C319.378 129.336 319.276 129.301 319.17 129.287C319.064 129.273 318.957 129.281 318.854 129.31C318.751 129.339 318.655 129.388 318.572 129.455C318.489 129.523 318.42 129.606 318.37 129.7C318.763 129.746 319.159 129.635 319.47 129.39Z"
        fill="black" />
    <path opacity="0.2"
        d="M319.48 130.001C319.48 130.001 318.87 129.911 318.55 130.821C318.933 130.642 319.256 130.358 319.48 130.001Z"
        fill="black" />
    <path
        d="M343.38 136.74C342.462 138.39 340.955 139.633 339.16 140.22C336.88 140.88 335.97 138.6 336.79 136.22C337.54 134.09 339.61 131.17 341.79 131.56C343.97 131.95 344.58 134.63 343.38 136.74Z"
        fill="#FF8B7B" />
    <path
        d="M330.4 130C330.4 130.64 329.99 131.14 329.56 131.11C329.13 131.08 328.83 130.53 328.88 129.88C328.93 129.23 329.29 128.74 329.72 128.77C330.15 128.8 330.45 129.37 330.4 130Z"
        fill="#263238" />
    <path
        d="M327.2 141.75C326.38 141.91 325.63 141.59 325.53 141.05C325.43 140.51 326.03 139.95 326.85 139.79C327.67 139.63 328.42 139.95 328.52 140.49C328.62 141.03 328 141.6 327.2 141.75Z"
        fill="#263238" />
    <path
        d="M321.65 129.31C321.65 129.95 321.23 130.45 320.81 130.42C320.39 130.39 320.07 129.84 320.12 129.19C320.17 128.54 320.54 128.05 320.96 128.08C321.38 128.11 321.69 128.66 321.65 129.31Z"
        fill="#263238" />
    <path
        d="M323.64 135.75C318.96 136.07 318.06 138.35 318.88 139.35C319.7 140.35 321.7 139.35 321.7 139.35C321.7 139.35 325.49 140.16 326.6 138.95C328.39 139.71 331.12 138.29 330.35 137.21C329.58 136.13 327.65 135.47 323.64 135.75Z"
        fill="#263238" />
    <path opacity="0.2"
        d="M323.64 135.75C318.96 136.07 318.06 138.35 318.88 139.35C319.7 140.35 321.7 139.35 321.7 139.35C321.7 139.35 325.49 140.16 326.6 138.95C328.39 139.71 331.12 138.29 330.35 137.21C329.58 136.13 327.65 135.47 323.64 135.75Z"
        fill="white" />
    <path
        d="M323.78 130C322.881 131.915 321.72 133.695 320.33 135.29C320.75 135.637 321.24 135.89 321.766 136.029C322.293 136.169 322.843 136.193 323.38 136.1L323.78 130Z"
        fill="#FF5652" />
    <path
        d="M331.81 126.64C331.874 126.632 331.935 126.612 331.99 126.58C332.033 126.552 332.069 126.517 332.097 126.475C332.126 126.434 332.146 126.387 332.156 126.338C332.166 126.288 332.167 126.238 332.157 126.188C332.147 126.139 332.128 126.092 332.1 126.05C331.781 125.532 331.342 125.099 330.819 124.787C330.297 124.476 329.707 124.295 329.1 124.26C328.999 124.26 328.903 124.3 328.832 124.371C328.76 124.442 328.72 124.539 328.72 124.64C328.72 124.741 328.76 124.837 328.832 124.908C328.903 124.98 328.999 125.02 329.1 125.02C329.579 125.054 330.041 125.203 330.45 125.454C330.859 125.704 331.202 126.049 331.45 126.46C331.487 126.52 331.541 126.57 331.604 126.601C331.668 126.633 331.739 126.646 331.81 126.64Z"
        fill="#263238" />
    <path
        d="M318.78 125.89C318.843 125.889 318.905 125.873 318.96 125.843C319.016 125.814 319.064 125.772 319.1 125.72C319.356 125.32 319.703 124.986 320.114 124.746C320.524 124.506 320.986 124.367 321.46 124.34C321.561 124.34 321.658 124.3 321.729 124.229C321.8 124.158 321.84 124.061 321.84 123.96C321.84 123.859 321.8 123.763 321.729 123.691C321.658 123.62 321.561 123.58 321.46 123.58C320.859 123.604 320.272 123.773 319.749 124.073C319.227 124.372 318.785 124.793 318.46 125.3C318.432 125.341 318.413 125.387 318.404 125.436C318.394 125.485 318.395 125.535 318.405 125.583C318.415 125.632 318.435 125.678 318.464 125.718C318.492 125.759 318.528 125.794 318.57 125.82C318.63 125.867 318.704 125.892 318.78 125.89Z"
        fill="#263238" />
    <path
        d="M331.69 310.8C333.93 274.72 333.43 237.7 329.54 229.64L303.79 229.25C303.79 229.25 307 289.57 308 313.6C309.05 338.6 311.29 403.6 311.29 403.6L326.19 403.78C326.19 403.78 334.93 338.71 331.69 310.8Z"
        fill="#263238" />
    <path opacity="0.2"
        d="M332.8 255.65C324.01 265.25 328.12 291.83 331.95 306.47C333 288.16 333.28 269.93 332.8 255.65Z"
        fill="black" />
    <path
        d="M326 405.66L312.9 405.49C312.071 405.448 311.252 405.691 310.58 406.18C306.78 409.18 303.89 409.27 299.58 410.04C294.41 410.97 296.97 416.17 300.78 416.23C307.08 416.33 306.55 416.1 311.93 416.18L315.65 416.23L317.33 414.52L318.82 416.23H325.7C325.879 416.234 326.056 416.2 326.221 416.13C326.385 416.06 326.533 415.955 326.654 415.824C326.775 415.692 326.867 415.537 326.923 415.367C326.979 415.197 326.999 415.018 326.98 414.84L326 405.66Z"
        fill="#263238" />
    <path d="M327 407C326.77 407 309.81 406.46 309.81 406.46L309.12 400.37L327.93 400.79L327 407Z"
        fill="#006FEE" />
    <path
        d="M361.93 310.8C359.17 274.72 358 238 353 229.94L321.95 229.54C321.95 229.54 334.3 289.54 338.64 313.6C343.15 338.6 355.29 403.6 355.29 403.6L370.22 403.78C370.22 403.78 369 338.71 361.93 310.8Z"
        fill="#263238" />
    <path
        d="M370.93 405.66L357.82 405.49C356.994 405.449 356.179 405.693 355.51 406.18C351.71 409.18 353.45 409.27 349.14 410.04C343.97 410.97 346.52 416.17 350.33 416.23C356.63 416.33 356.11 416.1 361.48 416.18L367.32 416.23L368.09 414.52L369.09 416.23H370.63C370.806 416.229 370.98 416.192 371.141 416.12C371.302 416.048 371.446 415.943 371.564 415.812C371.681 415.681 371.77 415.527 371.825 415.36C371.879 415.192 371.898 415.015 371.88 414.84L370.93 405.66Z"
        fill="#263238" />
    <path
        d="M371.92 407C371.68 407 354.65 406.46 354.65 406.46L353 400.33L371.87 400.75L371.92 407Z"
        fill="#006FEE" />
    <path
        d="M323.31 154.29C323.31 154.29 319.62 160.86 323.86 166.19C320.5 166.19 318.3 169.83 318.3 169.83C318.3 169.83 313.83 160.83 320.44 154.83C320.9 154.15 323.31 154.29 323.31 154.29Z"
        fill="#006FEE" />
    <path
        d="M354.33 232.68C336.76 233.41 316.61 233.63 304.01 232.68C303.941 232.677 303.873 232.659 303.813 232.626C303.752 232.593 303.7 232.546 303.66 232.49C302.834 231.09 302.453 229.472 302.57 227.85C302.58 227.731 302.635 227.62 302.725 227.54C302.814 227.46 302.93 227.417 303.05 227.42C319.68 227.87 336.21 227.85 353.59 227.42C353.685 227.418 353.779 227.445 353.859 227.497C353.939 227.548 354.002 227.623 354.04 227.71C354.621 229.15 354.874 230.701 354.78 232.25C354.772 232.365 354.722 232.473 354.639 232.553C354.555 232.632 354.445 232.678 354.33 232.68Z"
        fill="#263238" />
    <path opacity="0.2"
        d="M354.33 232.68C336.76 233.41 316.61 233.63 304.01 232.68C303.941 232.677 303.873 232.659 303.813 232.626C303.752 232.593 303.7 232.546 303.66 232.49C302.834 231.09 302.453 229.472 302.57 227.85C302.58 227.731 302.635 227.62 302.725 227.54C302.814 227.46 302.93 227.417 303.05 227.42C319.68 227.87 336.21 227.85 353.59 227.42C353.685 227.418 353.779 227.445 353.859 227.497C353.939 227.548 354.002 227.623 354.04 227.71C354.621 229.15 354.874 230.701 354.78 232.25C354.772 232.365 354.722 232.473 354.639 232.553C354.555 232.632 354.445 232.678 354.33 232.68Z"
        fill="black" />
    <path
        d="M320 227.14C319.792 229.351 319.971 231.581 320.53 233.73C324.34 234.32 332.16 233.88 332.16 233.88C332.273 231.664 332.193 229.442 331.92 227.24C325.92 227 320 227.14 320 227.14Z"
        fill="white" />
    <path
        d="M355.13 166.72L355.7 167.23L356.15 167.65L357 168.47C357.55 169.01 358.05 169.55 358.56 170.1C359.56 171.19 360.51 172.32 361.41 173.46C363.208 175.718 364.878 178.075 366.41 180.52C369.396 185.351 371.917 190.454 373.94 195.76C374.21 196.47 374.42 196.9 374.8 198.11C375.101 199.089 375.315 200.093 375.44 201.11C375.624 202.89 375.601 204.686 375.37 206.46C374.94 209.518 374.134 212.51 372.97 215.37C371.906 218.025 370.656 220.601 369.23 223.08C367.834 225.516 366.273 227.855 364.56 230.08C364.051 230.733 363.327 231.185 362.516 231.354C361.705 231.523 360.86 231.4 360.132 231.005C359.404 230.61 358.84 229.97 358.539 229.199C358.238 228.427 358.221 227.573 358.49 226.79L358.55 226.62C360.285 221.925 361.698 217.117 362.78 212.23C363.271 210.047 363.526 207.818 363.54 205.58C363.542 204.713 363.435 203.85 363.22 203.01C362.975 202.249 362.639 201.521 362.22 200.84C360.015 196.419 357.513 192.153 354.73 188.07C353.36 186.07 351.9 184.07 350.4 182.25C349.65 181.31 348.87 180.42 348.1 179.54L346.94 178.27L346.38 177.68L346.12 177.41L345.95 177.25C344.549 176.031 343.688 174.306 343.559 172.453C343.43 170.6 344.042 168.772 345.26 167.37C346.479 165.968 348.204 165.108 350.057 164.979C351.91 164.85 353.739 165.461 355.14 166.68L355.13 166.72Z"
        fill="#FF8B7B" />
    <path
        d="M346.51 158.06C354.3 159.41 362.06 168.69 366.69 177.31C363.497 182.698 358.715 186.967 353 189.53C353 189.53 343.86 180.63 340.21 174.11C336.56 167.59 339.18 156.79 346.51 158.06Z"
        fill="#006FEE" />
    <path
        d="M366.42 175.34C367.129 176.174 367.681 177.129 368.05 178.16C366.05 181.16 361.31 189.09 352.64 190.64C351.81 190.156 351.181 189.389 350.87 188.48C350.87 188.48 360.88 183.72 366.42 175.34Z"
        fill="#263238" />
    <path
        d="M340.87 157.36C339.26 156.67 339.87 155.76 339.87 155.76C339.87 155.76 347.28 156.02 352.35 157.63C353.1 158.52 352.22 159.63 352.22 159.63C352.22 159.63 345.65 159.41 340.87 157.36Z"
        fill="#263238" />
    <path opacity="0.2"
        d="M338.93 155.56C338.93 155.56 337.25 161.42 329.57 166.2C332.93 166.2 335.18 172.33 335.18 172.33C335.18 172.33 342.18 164.11 340.56 156C340.09 155.28 338.93 155.56 338.93 155.56Z"
        fill="black" />
    <path
        d="M338.71 154.5C338.71 154.5 336.71 160.84 329.57 166.2C332.93 166.2 335.26 169.83 335.26 169.83C335.26 169.83 342.14 164.11 340.56 156C340.037 155.394 339.411 154.887 338.71 154.5Z"
        fill="#006FEE" />
    <path
        d="M345.91 178.57C345.45 187.21 339.98 189.27 339.21 189.27C338.44 189.27 333.21 187.21 333.67 178.57L339.92 176.11L345.91 178.57Z"
        fill="white" />
    <path
        d="M359.37 226.101L353.21 231.401L361.38 236.711C361.38 236.711 366.38 231.231 363.9 228.111L359.37 226.101Z"
        fill="#FF8B7B" />
    <path
        d="M352.52 239.81L355.69 241.18C356.302 241.447 356.988 241.487 357.627 241.295C358.267 241.103 358.817 240.69 359.18 240.13L361.38 236.71L353.21 231.4L351.08 236.05C350.924 236.391 350.838 236.76 350.826 237.135C350.814 237.509 350.877 237.883 351.011 238.233C351.145 238.583 351.347 238.903 351.607 239.174C351.866 239.444 352.176 239.661 352.52 239.81Z"
        fill="#FF8B7B" />
    <path
        d="M317.7 119.13C312.21 119.88 314.05 121.62 326.29 123.18C338.53 124.74 341.6 123.51 341.6 123.51C341.6 123.51 327.54 119.1 317.7 119.13Z"
        fill="#263238" />
    <path
        d="M345.39 125.89C345.39 125.89 334.64 121.52 317.7 119.13C317.49 116.64 319.54 114 319.54 114C319.54 114 315.76 112.11 316.93 108.5C318.1 104.89 323.51 105.36 329.82 102.5C332.13 105.04 338.48 109.17 342.82 109.7C343.89 111.91 346.69 117.44 351.23 119.57C351.16 121.98 346.65 122.57 346.65 122.57C346.671 123.179 346.57 123.787 346.354 124.356C346.137 124.926 345.81 125.448 345.39 125.89Z"
        fill="#006FEE" />
    <path opacity="0.3"
        d="M346.64 122.57C342.71 119 328.75 112.48 319.54 114C319.54 114 317.49 116.65 317.7 119.13C334.64 121.52 345.39 125.89 345.39 125.89C345.808 125.447 346.133 124.926 346.348 124.356C346.563 123.786 346.662 123.179 346.64 122.57Z"
        fill="black" />
    <path
        d="M331.44 109.84C330.23 116 326.03 117.11 325.44 117.05C324.85 116.99 321.25 115.17 322.44 109.05L327.27 107.71L331.44 109.84Z"
        fill="white" />
    <path
        d="M251.75 210.78C251.14 210.779 250.55 210.555 250.093 210.15C249.636 209.745 249.344 209.186 249.27 208.58L242.13 150.39C242.049 149.727 242.235 149.059 242.647 148.533C243.059 148.007 243.662 147.666 244.325 147.585C244.988 147.504 245.656 147.69 246.182 148.102C246.708 148.513 247.049 149.117 247.13 149.78L254.23 208C254.272 208.326 254.249 208.657 254.163 208.974C254.076 209.291 253.928 209.587 253.726 209.847C253.525 210.106 253.273 210.323 252.988 210.485C252.702 210.647 252.387 210.75 252.06 210.79L251.75 210.78Z"
        fill="#263238" />
    <path
        d="M250.16 184.6C249.55 182.36 250.7 182.03 249.59 178.85C249 177.16 250.94 175.85 251.18 177.21C252.08 182.16 258.65 184.93 256.37 188.06C254.09 191.19 250.76 186.84 250.16 184.6Z"
        fill="#FF8B7B" />
    <path
        d="M294.729 100.786C296.69 69.5278 272.94 42.5979 241.681 40.6367C210.423 38.6756 183.493 62.4259 181.531 93.6845C179.57 124.943 203.321 151.873 234.579 153.834C265.838 155.795 292.768 132.045 294.729 100.786Z"
        fill="#006FEE" />
    <path
        d="M281.286 112.521C289.734 88.6788 277.254 62.5026 253.412 54.0549C229.57 45.6072 203.393 58.087 194.946 81.9293C186.498 105.772 198.978 131.948 222.82 140.395C246.663 148.843 272.839 136.363 281.286 112.521Z"
        fill="white" />
    <path
        d="M267.87 89.4899C264.11 84.4099 256.87 89.4899 254.7 94.8299C254.111 96.1547 253.723 97.5603 253.55 98.9999L251.16 82.6899L249.27 67.2299C249.071 65.9033 248.362 64.7067 247.294 63.8948C246.226 63.0829 244.884 62.7198 243.552 62.8826C242.22 63.0455 241.005 63.7215 240.164 64.7669C239.323 65.8122 238.924 67.1444 239.05 68.4799L238.58 64.6299C238.497 63.9595 238.283 63.312 237.95 62.7243C237.617 62.1366 237.172 61.6202 236.639 61.2047C236.107 60.7891 235.498 60.4826 234.847 60.3024C234.196 60.1223 233.515 60.0722 232.845 60.1549C232.175 60.2377 231.527 60.4516 230.939 60.7846C230.352 61.1176 229.835 61.5631 229.42 62.0956C229.004 62.6282 228.698 63.2374 228.518 63.8884C228.337 64.5394 228.287 65.2195 228.37 65.8899L229.03 71.2499C228.94 70.5245 228.697 69.8264 228.317 69.2021C227.937 68.5778 227.428 68.0416 226.825 67.6292C226.221 67.2168 225.537 66.9376 224.817 66.8101C224.097 66.6826 223.359 66.7098 222.65 66.8899C221.437 67.2012 220.379 67.943 219.672 68.977C218.965 70.011 218.659 71.2667 218.81 72.5099L219.63 79.1999C219.542 78.4738 219.3 77.7748 218.92 77.1497C218.54 76.5245 218.031 75.9877 217.428 75.575C216.824 75.1623 216.139 74.8832 215.418 74.7564C214.698 74.6297 213.959 74.6582 213.25 74.8399C212.039 75.1492 210.981 75.8895 210.276 76.9221C209.571 77.9548 209.267 79.209 209.42 80.4499L211.06 93.8199L212.23 103.41L213.78 116C214.88 125 218.39 130.08 223.6 132.37C231.6 135.88 246.25 135.92 252.83 130.58C258.59 125.91 262.29 114.66 263.18 107.69C264.07 100.72 269.4 91.5399 267.87 89.4899Z"
        fill="#263238" />
    <path d="M276.513 57.7445L267.176 50.4473L199.728 136.746L209.064 144.044L276.513 57.7445Z"
        fill="#006FEE" />
    <path
        d="M80.4399 180.08V161.88H93.6099V164H82.8499V169.58H92.9199V171.72H82.8499V177.91H93.9999V180.06L80.4399 180.08Z"
        fill="#FDFDFD" />
    <path
        d="M97.0503 180.08V166.89H99.0503V168.89C99.3873 168.18 99.8713 167.549 100.47 167.04C100.888 166.744 101.388 166.587 101.9 166.59C102.72 166.613 103.517 166.866 104.2 167.32L103.43 169.39C102.937 169.084 102.37 168.918 101.79 168.91C101.316 168.902 100.854 169.058 100.48 169.35C100.079 169.658 99.7847 170.085 99.6403 170.57C99.3887 171.417 99.264 172.296 99.2703 173.18V180.08H97.0503Z"
        fill="#FDFDFD" />
    <path
        d="M105.52 180.08V166.89H107.52V168.89C107.87 168.159 108.375 167.514 109 167C109.419 166.705 109.918 166.548 110.43 166.55C111.25 166.572 112.047 166.825 112.73 167.28L111.96 169.35C111.467 169.044 110.9 168.878 110.32 168.87C109.846 168.862 109.383 169.017 109.01 169.31C108.608 169.618 108.314 170.045 108.17 170.53C107.918 171.377 107.794 172.256 107.8 173.14V180.04L105.52 180.08Z"
        fill="#FDFDFD" />
    <path
        d="M113.18 173.49C113.18 171.05 113.847 169.24 115.18 168.06C116.33 167.072 117.806 166.548 119.32 166.59C120.146 166.56 120.969 166.705 121.735 167.013C122.501 167.321 123.195 167.787 123.77 168.38C124.369 169.045 124.83 169.823 125.126 170.667C125.423 171.511 125.55 172.406 125.5 173.3C125.562 174.675 125.298 176.046 124.73 177.3C124.234 178.259 123.46 179.046 122.51 179.56C121.535 180.101 120.436 180.38 119.32 180.37C118.493 180.403 117.668 180.263 116.898 179.958C116.128 179.653 115.43 179.19 114.85 178.6C113.645 177.181 113.046 175.346 113.18 173.49ZM115.48 173.49C115.379 174.844 115.769 176.19 116.58 177.28C116.927 177.675 117.353 177.991 117.832 178.208C118.31 178.425 118.83 178.537 119.355 178.537C119.881 178.537 120.4 178.425 120.879 178.208C121.357 177.991 121.784 177.675 122.13 177.28C122.953 176.165 123.347 174.791 123.24 173.41C123.335 172.082 122.94 170.766 122.13 169.71C121.783 169.316 121.356 169.001 120.878 168.785C120.399 168.569 119.88 168.457 119.355 168.457C118.83 168.457 118.311 168.569 117.833 168.785C117.354 169.001 116.927 169.316 116.58 169.71C115.771 170.797 115.381 172.138 115.48 173.49Z"
        fill="#FDFDFD" />
    <path
        d="M128.13 180.08V166.89H130.13V168.89C130.464 168.177 130.948 167.546 131.55 167.04C131.968 166.744 132.468 166.587 132.98 166.59C133.8 166.613 134.597 166.866 135.28 167.32L134.51 169.39C134.017 169.085 133.45 168.919 132.87 168.91C132.393 168.902 131.928 169.057 131.55 169.35C131.152 169.659 130.861 170.086 130.72 170.57C130.464 171.416 130.339 172.296 130.35 173.18V180.08H128.13Z"
        fill="#FDFDFD" />
    <path
        d="M88.7502 202.69V200.75C88.3045 201.454 87.6846 202.031 86.9506 202.425C86.2165 202.819 85.3932 203.017 84.5602 203C83.8131 203.006 83.0734 202.852 82.3902 202.55C81.797 202.316 81.2761 201.93 80.8802 201.43C80.5418 200.928 80.3072 200.364 80.1902 199.77C80.0842 199.079 80.0407 198.379 80.0602 197.68V189.5H82.2902V196.81C82.2651 197.599 82.3119 198.389 82.4302 199.17C82.5507 199.725 82.8665 200.218 83.3202 200.56C83.8156 200.903 84.4079 201.078 85.0102 201.06C85.6744 201.062 86.327 200.886 86.9002 200.55C87.4602 200.23 87.8995 199.734 88.1502 199.14C88.4264 198.313 88.5484 197.441 88.5102 196.57V189.5H90.7502V202.69H88.7502Z"
        fill="#FDFDFD" />
    <path
        d="M94.25 202.69V189.5H96.25V191.37C96.7004 190.673 97.3249 190.107 98.0616 189.726C98.7982 189.346 99.6216 189.164 100.45 189.2C101.202 189.188 101.948 189.335 102.64 189.63C103.233 189.859 103.751 190.247 104.14 190.75C104.482 191.251 104.72 191.815 104.84 192.41C104.94 193.128 104.98 193.854 104.96 194.58V202.69H102.73V194.69C102.757 194.012 102.665 193.336 102.46 192.69C102.285 192.236 101.961 191.855 101.54 191.61C101.068 191.333 100.527 191.194 99.98 191.21C99.0738 191.194 98.194 191.515 97.51 192.11C96.82 192.72 96.51 193.87 96.51 195.56V202.76L94.25 202.69Z"
        fill="#FDFDFD" />
    <path
        d="M117 201.06C116.292 201.692 115.48 202.196 114.6 202.55C113.814 202.847 112.98 202.996 112.14 202.99C110.931 203.068 109.738 202.686 108.8 201.92C108.418 201.582 108.116 201.164 107.913 200.695C107.711 200.227 107.615 199.72 107.63 199.21C107.624 198.609 107.767 198.016 108.046 197.484C108.326 196.952 108.732 196.497 109.23 196.16C109.721 195.824 110.266 195.574 110.84 195.42C111.5 195.272 112.168 195.162 112.84 195.09C114.196 194.966 115.535 194.708 116.84 194.32C116.84 194.01 116.84 193.82 116.84 193.73C116.877 193.384 116.84 193.033 116.731 192.702C116.623 192.371 116.445 192.067 116.21 191.81C115.483 191.251 114.575 190.98 113.66 191.05C112.845 190.991 112.032 191.183 111.33 191.6C110.739 192.117 110.346 192.825 110.22 193.6L108.04 193.3C108.188 192.478 108.531 191.702 109.04 191.04C109.564 190.413 110.259 189.951 111.04 189.71C112.005 189.381 113.02 189.222 114.04 189.24C114.973 189.208 115.905 189.343 116.79 189.64C117.385 189.833 117.919 190.177 118.34 190.64C118.692 191.083 118.933 191.604 119.04 192.16C119.13 192.843 119.167 193.532 119.15 194.22V197.22C119.116 198.555 119.163 199.891 119.29 201.22C119.393 201.774 119.585 202.308 119.86 202.8H117.52C117.235 202.259 117.059 201.668 117 201.06ZM116.81 196.06C115.629 196.478 114.405 196.76 113.16 196.9C112.478 196.969 111.806 197.12 111.16 197.35C110.8 197.499 110.493 197.753 110.28 198.08C110.073 198.394 109.965 198.764 109.97 199.14C109.965 199.422 110.022 199.703 110.138 199.96C110.254 200.218 110.425 200.447 110.64 200.63C111.209 201.072 111.922 201.286 112.64 201.23C113.443 201.245 114.236 201.048 114.94 200.66C115.583 200.31 116.1 199.768 116.42 199.11C116.697 198.401 116.819 197.64 116.78 196.88L116.81 196.06Z"
        fill="#FDFDFD" />
    <path
        d="M131.19 202.69V200.75C130.745 201.454 130.125 202.031 129.391 202.425C128.657 202.819 127.833 203.017 127 203C126.25 203.005 125.507 202.851 124.82 202.55C124.231 202.313 123.714 201.927 123.32 201.43C122.974 200.933 122.738 200.366 122.63 199.77C122.52 199.079 122.473 198.379 122.49 197.68V189.5H124.73V196.81C124.705 197.599 124.752 198.389 124.87 199.17C124.991 199.725 125.307 200.218 125.76 200.56C126.256 200.903 126.848 201.078 127.45 201.06C128.115 201.062 128.767 200.886 129.34 200.55C129.9 200.23 130.34 199.734 130.59 199.14C130.867 198.313 130.989 197.441 130.95 196.57V189.5H133.19V202.69H131.19Z"
        fill="#FDFDFD" />
    <path
        d="M141.57 200.69L141.9 202.69C141.346 202.817 140.779 202.884 140.21 202.89C139.558 202.923 138.908 202.792 138.32 202.51C137.905 202.286 137.572 201.935 137.37 201.51C137.135 200.654 137.043 199.765 137.1 198.88V191.29H135.46V189.5H137.1V186.23L139.32 184.89V189.5H141.57V191.24H139.32V199C139.293 199.413 139.333 199.829 139.44 200.23C139.519 200.412 139.656 200.563 139.83 200.66C140.063 200.785 140.326 200.843 140.59 200.83C140.92 200.806 141.247 200.76 141.57 200.69Z"
        fill="#FDFDFD" />
    <path
        d="M143.76 202.689V184.479H146V190.999C146.48 190.42 147.084 189.956 147.768 189.643C148.452 189.33 149.198 189.175 149.95 189.189C150.835 189.166 151.712 189.365 152.5 189.77C153.178 190.114 153.723 190.673 154.05 191.359C154.409 192.317 154.566 193.338 154.51 194.359V202.719H152.28V194.359C152.355 193.483 152.094 192.611 151.55 191.919C151.279 191.656 150.955 191.452 150.601 191.322C150.246 191.191 149.868 191.135 149.49 191.16C148.833 191.159 148.187 191.335 147.62 191.669C147.064 191.986 146.628 192.479 146.38 193.07C146.097 193.847 145.968 194.673 146 195.499V202.719L143.76 202.689Z"
        fill="#FDFDFD" />
    <path
        d="M157.07 196.09C157.07 193.65 157.737 191.844 159.07 190.67C160.223 189.682 161.702 189.158 163.22 189.2C164.051 189.17 164.879 189.314 165.651 189.625C166.423 189.935 167.121 190.403 167.7 191C168.3 191.667 168.761 192.446 169.058 193.292C169.355 194.138 169.481 195.035 169.43 195.93C169.491 197.305 169.231 198.674 168.67 199.93C168.174 200.895 167.396 201.687 166.44 202.2C165.468 202.741 164.372 203.02 163.26 203.01C162.43 203.045 161.602 202.904 160.83 202.598C160.058 202.291 159.36 201.825 158.78 201.23C157.552 199.811 156.937 197.962 157.07 196.09ZM159.37 196.09C159.269 197.448 159.659 198.797 160.47 199.89C160.812 200.295 161.24 200.617 161.723 200.835C162.205 201.053 162.731 201.161 163.26 201.15C163.787 201.16 164.31 201.051 164.79 200.832C165.27 200.612 165.693 200.286 166.03 199.88C166.847 198.767 167.237 197.397 167.13 196.02C167.226 194.689 166.831 193.37 166.02 192.31C165.674 191.915 165.247 191.598 164.768 191.382C164.29 191.165 163.77 191.052 163.245 191.052C162.72 191.052 162.2 191.165 161.722 191.382C161.243 191.598 160.816 191.915 160.47 192.31C159.657 193.395 159.266 194.739 159.37 196.09Z"
        fill="#FDFDFD" />
    <path
        d="M172 202.69V189.5H174V191.5C174.331 190.786 174.816 190.154 175.42 189.65C175.838 189.355 176.338 189.197 176.85 189.2C177.669 189.219 178.466 189.469 179.15 189.92L178.38 192C177.89 191.687 177.322 191.517 176.74 191.51C176.266 191.506 175.805 191.661 175.43 191.95C175.031 192.26 174.737 192.687 174.59 193.17C174.339 194.017 174.215 194.897 174.22 195.78V202.69H172Z"
        fill="#FDFDFD" />
    <path
        d="M180.53 187.049V184.479H182.77V187.049H180.53ZM180.53 202.689V189.499H182.77V202.689H180.53Z"
        fill="#FDFDFD" />
    <path
        d="M185 202.69V200.88L193.4 191.24C192.4 191.24 191.6 191.31 190.88 191.31H185.5V189.5H196.28V191L189.14 199.37L187.76 200.9C188.76 200.82 189.7 200.78 190.58 200.78H196.68V202.71L185 202.69Z"
        fill="#FDFDFD" />
    <path
        d="M207.92 198.439L210.23 198.729C209.936 199.972 209.232 201.078 208.23 201.869C207.131 202.649 205.806 203.043 204.46 202.989C203.612 203.033 202.764 202.896 201.973 202.587C201.182 202.279 200.465 201.806 199.87 201.199C198.667 199.822 198.056 198.025 198.17 196.199C198.055 194.319 198.671 192.466 199.89 191.029C200.454 190.422 201.143 189.943 201.909 189.625C202.675 189.308 203.501 189.159 204.33 189.189C205.138 189.162 205.943 189.308 206.691 189.619C207.438 189.93 208.109 190.397 208.66 190.989C209.847 192.403 210.445 194.218 210.33 196.059C210.33 196.189 210.33 196.389 210.33 196.659H200.49C200.494 197.877 200.93 199.053 201.72 199.979C202.073 200.355 202.501 200.653 202.977 200.853C203.452 201.053 203.964 201.15 204.48 201.139C205.232 201.159 205.97 200.931 206.58 200.489C207.216 199.95 207.681 199.238 207.92 198.439ZM200.58 194.829H207.94C207.916 193.931 207.623 193.06 207.1 192.329C206.769 191.915 206.347 191.583 205.867 191.359C205.386 191.135 204.86 191.026 204.33 191.039C203.853 191.023 203.378 191.103 202.933 191.275C202.488 191.447 202.082 191.707 201.74 192.039C201.01 192.786 200.594 193.785 200.58 194.829Z"
        fill="#FDFDFD" />
    <path
        d="M221.59 202.69V201C221.213 201.636 220.671 202.157 220.021 202.51C219.372 202.862 218.639 203.031 217.9 203C216.868 203.005 215.859 202.702 215 202.13C214.103 201.528 213.392 200.686 212.95 199.7C212.452 198.574 212.206 197.352 212.23 196.12C212.214 194.892 212.438 193.672 212.89 192.53C213.279 191.519 213.98 190.657 214.89 190.07C215.764 189.5 216.787 189.201 217.83 189.21C218.571 189.198 219.303 189.37 219.96 189.71C220.554 190.03 221.069 190.478 221.47 191.02V184.49H223.7V202.7L221.59 202.69ZM214.53 196.11C214.425 197.456 214.8 198.795 215.59 199.89C215.888 200.276 216.27 200.59 216.706 200.808C217.142 201.027 217.622 201.143 218.11 201.15C218.589 201.153 219.062 201.046 219.494 200.838C219.925 200.63 220.304 200.326 220.6 199.95C221.358 198.888 221.712 197.59 221.6 196.29C221.731 194.882 221.379 193.471 220.6 192.29C220.299 191.894 219.911 191.573 219.465 191.352C219.019 191.132 218.528 191.018 218.03 191.02C217.549 191.016 217.073 191.123 216.641 191.335C216.208 191.547 215.831 191.857 215.54 192.24C214.771 193.377 214.414 194.743 214.53 196.11Z"
        fill="#FDFDFD" />
</svg>